<svg id="svg" version="1.1" xmlns="http://www.w3.org/2000/svg" xmlns:xlink="http://www.w3.org/1999/xlink" width="400" height="299.2" viewBox="0, 0, 400,299.2"><g id="svgg"><path id="path0" d="M388.774 0.773 C 388.382 1.137,387.985 1.358,387.893 1.266 C 387.800 1.173,387.725 1.263,387.725 1.465 C 387.725 1.667,387.606 1.759,387.462 1.669 C 387.214 1.516,385.355 2.288,385.030 2.678 C 384.696 3.080,383.176 3.928,383.379 3.599 C 383.500 3.404,383.047 3.592,382.374 4.017 C 381.701 4.443,381.033 4.790,380.891 4.790 C 380.748 4.790,380.384 5.065,380.080 5.400 C 379.777 5.735,379.354 5.942,379.139 5.860 C 378.925 5.777,378.782 5.857,378.821 6.036 C 378.860 6.216,378.705 6.430,378.476 6.513 C 378.192 6.617,378.138 6.539,378.306 6.267 C 378.441 6.049,378.136 6.166,377.628 6.528 C 377.120 6.890,376.548 7.186,376.358 7.186 C 376.168 7.186,376.109 7.341,376.226 7.531 C 376.348 7.729,376.309 7.796,376.135 7.688 C 375.872 7.526,374.617 8.041,373.054 8.953 C 372.807 9.098,372.100 9.463,371.482 9.766 C 370.865 10.068,370.359 10.428,370.359 10.565 C 370.359 10.702,370.235 10.737,370.084 10.644 C 369.933 10.550,369.629 10.643,369.409 10.851 C 368.598 11.616,367.853 12.120,368.072 11.755 C 368.223 11.503,368.146 11.441,367.832 11.562 C 367.577 11.659,367.442 11.858,367.532 12.004 C 367.622 12.150,367.487 12.188,367.231 12.090 C 366.926 11.973,366.766 12.083,366.766 12.411 C 366.766 12.685,366.644 12.834,366.494 12.741 C 366.215 12.569,364.371 13.419,364.039 13.873 C 363.938 14.010,363.769 14.111,363.664 14.097 C 363.128 14.026,362.898 14.131,362.097 14.820 C 361.619 15.231,361.093 15.520,360.928 15.460 C 360.549 15.324,358.243 16.648,357.240 17.577 C 356.821 17.965,356.200 18.245,355.859 18.198 C 355.479 18.146,355.270 18.264,355.319 18.502 C 355.363 18.716,355.228 18.870,355.020 18.844 C 354.363 18.763,353.341 19.204,353.174 19.640 C 353.085 19.871,352.690 20.060,352.295 20.060 C 351.901 20.060,351.235 20.329,350.817 20.659 C 350.398 20.988,349.841 21.257,349.579 21.257 C 349.316 21.257,349.102 21.378,349.102 21.524 C 349.102 21.671,348.765 21.876,348.353 21.979 C 347.942 22.083,347.605 22.307,347.605 22.478 C 347.605 22.650,347.478 22.712,347.323 22.616 C 347.168 22.520,346.767 22.737,346.431 23.097 C 346.096 23.457,345.515 23.786,345.141 23.827 C 344.767 23.868,344.360 23.913,344.237 23.927 C 344.113 23.941,344.012 24.150,344.012 24.392 C 344.012 24.659,343.836 24.764,343.565 24.660 C 343.311 24.562,343.040 24.694,342.935 24.967 C 342.834 25.230,342.623 25.366,342.465 25.268 C 342.307 25.171,341.951 25.297,341.673 25.548 C 341.395 25.800,341.033 26.016,340.868 26.030 C 340.225 26.084,339.521 26.400,339.521 26.634 C 339.521 26.770,339.179 26.967,338.760 27.072 C 338.300 27.188,338.082 27.396,338.208 27.600 C 338.330 27.798,338.282 27.854,338.090 27.735 C 337.710 27.501,334.995 28.743,335.192 29.062 C 335.265 29.179,334.883 29.358,334.344 29.460 C 333.805 29.561,333.175 29.905,332.945 30.225 C 332.714 30.545,332.421 30.742,332.293 30.662 C 332.010 30.488,330.827 31.129,330.366 31.707 C 330.182 31.938,329.893 32.042,329.725 31.938 C 329.556 31.834,329.116 32.012,328.746 32.333 C 328.375 32.654,327.819 32.997,327.509 33.095 C 327.200 33.193,326.946 33.407,326.946 33.571 C 326.946 33.734,326.816 33.787,326.657 33.689 C 326.305 33.471,323.957 34.633,323.407 35.298 C 323.106 35.662,323.063 35.670,323.233 35.329 C 323.398 34.997,323.301 35.016,322.857 35.405 C 322.527 35.693,322.195 35.867,322.119 35.791 C 322.042 35.715,321.595 35.984,321.123 36.389 C 320.652 36.794,320.013 37.126,319.705 37.126 C 319.396 37.126,319.062 37.336,318.964 37.592 C 318.866 37.849,318.600 37.987,318.375 37.901 C 318.149 37.814,317.964 37.882,317.964 38.051 C 317.964 38.220,317.841 38.283,317.690 38.189 C 317.540 38.096,317.371 38.122,317.316 38.247 C 317.261 38.371,316.407 38.864,315.419 39.342 C 314.431 39.820,313.444 40.426,313.226 40.689 C 312.913 41.068,312.870 41.074,313.024 40.719 C 313.196 40.319,313.174 40.319,312.821 40.719 C 312.602 40.966,312.221 41.211,311.975 41.265 C 311.729 41.318,311.485 41.479,311.433 41.622 C 311.381 41.765,311.145 41.808,310.909 41.718 C 310.653 41.620,310.479 41.734,310.479 42.001 C 310.479 42.247,310.311 42.430,310.105 42.407 C 309.416 42.330,306.598 43.857,306.588 44.311 C 306.579 44.711,306.545 44.711,306.287 44.311 C 306.128 44.064,305.993 43.997,305.988 44.162 C 305.984 44.326,305.111 44.853,304.050 45.332 C 302.982 45.814,302.203 46.339,302.307 46.506 C 302.419 46.687,302.294 46.732,301.995 46.617 C 301.721 46.512,301.497 46.546,301.497 46.693 C 301.497 46.839,300.992 47.123,300.374 47.322 C 299.757 47.521,298.672 48.071,297.964 48.543 C 297.256 49.015,296.549 49.401,296.392 49.401 C 296.236 49.401,296.108 49.528,296.108 49.682 C 296.108 49.836,295.872 49.945,295.584 49.924 C 294.996 49.881,293.413 50.828,293.413 51.223 C 293.413 51.363,293.228 51.407,293.003 51.321 C 292.777 51.234,292.403 51.339,292.172 51.555 C 291.941 51.770,291.553 51.990,291.310 52.043 C 291.067 52.097,290.823 52.266,290.768 52.420 C 290.713 52.573,290.544 52.622,290.394 52.529 C 290.243 52.436,290.120 52.492,290.120 52.654 C 290.120 52.815,289.615 53.111,288.997 53.312 C 288.379 53.512,287.517 53.927,287.080 54.233 C 286.642 54.540,286.137 54.790,285.957 54.790 C 285.776 54.790,285.629 54.925,285.629 55.090 C 285.629 55.254,285.427 55.389,285.180 55.389 C 284.933 55.389,284.731 55.510,284.731 55.657 C 284.731 55.804,284.521 56.004,284.266 56.102 C 283.950 56.223,283.873 56.162,284.024 55.910 C 284.282 55.481,283.286 56.208,282.687 56.886 C 282.469 57.133,282.366 57.183,282.458 56.998 C 282.624 56.662,279.027 58.286,278.743 58.676 C 278.660 58.789,277.639 59.317,276.473 59.850 C 275.308 60.384,274.179 61.063,273.965 61.360 C 273.749 61.659,273.341 61.838,273.050 61.762 C 272.742 61.682,272.345 61.882,272.089 62.248 C 271.849 62.590,271.587 62.804,271.506 62.724 C 271.284 62.502,267.600 64.355,267.076 64.952 C 266.823 65.240,266.430 65.411,266.201 65.333 C 265.923 65.239,265.864 65.320,266.023 65.576 C 266.173 65.820,266.141 65.887,265.935 65.760 C 265.562 65.529,263.473 66.445,263.473 66.840 C 263.473 66.983,263.359 67.031,263.219 66.944 C 263.079 66.858,262.673 67.059,262.317 67.391 C 261.961 67.723,261.536 67.912,261.373 67.812 C 261.211 67.712,261.078 67.835,261.078 68.087 C 261.078 68.369,260.907 68.479,260.631 68.373 C 260.386 68.278,260.113 68.389,260.025 68.618 C 259.937 68.848,259.584 69.057,259.240 69.082 C 258.897 69.108,258.384 69.339,258.101 69.595 C 257.818 69.852,257.496 69.971,257.386 69.861 C 257.276 69.751,257.184 69.919,257.181 70.235 C 257.177 70.715,257.129 70.735,256.886 70.359 C 256.675 70.033,256.595 70.017,256.591 70.302 C 256.589 70.518,256.467 70.620,256.321 70.530 C 256.175 70.440,255.900 70.553,255.710 70.782 C 255.520 71.011,255.033 71.282,254.628 71.384 C 254.204 71.490,253.890 71.788,253.888 72.087 C 253.884 72.482,253.823 72.511,253.632 72.208 C 253.429 71.888,253.286 71.907,252.888 72.305 C 252.617 72.576,252.395 72.695,252.395 72.569 C 252.395 72.443,252.183 72.602,251.924 72.922 C 251.665 73.241,251.540 73.331,251.647 73.121 C 251.764 72.892,251.445 72.966,250.846 73.308 C 250.298 73.620,249.385 74.129,248.816 74.438 C 247.806 74.987,247.517 75.186,246.557 75.995 C 246.298 76.212,245.924 76.336,245.726 76.270 C 245.527 76.204,245.200 76.295,244.998 76.473 C 244.013 77.342,243.762 77.495,243.595 77.327 C 243.495 77.227,243.413 77.311,243.413 77.513 C 243.413 77.715,243.295 77.806,243.150 77.717 C 242.853 77.534,241.075 78.352,240.473 78.949 C 240.255 79.165,239.885 79.341,239.649 79.341 C 239.414 79.341,239.222 79.484,239.222 79.658 C 239.222 79.833,239.086 79.892,238.920 79.789 C 238.754 79.687,238.249 79.863,237.797 80.181 C 237.346 80.499,236.673 80.854,236.302 80.969 C 235.932 81.084,235.629 81.304,235.629 81.457 C 235.629 81.611,235.351 81.737,235.012 81.737 C 234.618 81.737,234.474 81.863,234.612 82.087 C 234.758 82.322,234.666 82.374,234.331 82.246 C 234.057 82.141,233.832 82.185,233.832 82.345 C 233.832 82.504,233.622 82.635,233.366 82.635 C 233.109 82.635,232.984 82.773,233.088 82.942 C 233.193 83.110,233.167 83.229,233.031 83.205 C 232.287 83.076,231.722 83.268,231.918 83.584 C 232.064 83.821,231.969 83.871,231.625 83.739 C 231.314 83.620,231.051 83.709,230.952 83.968 C 230.862 84.202,230.624 84.330,230.422 84.253 C 230.220 84.175,229.739 84.386,229.353 84.721 C 228.967 85.055,228.465 85.329,228.237 85.329 C 227.799 85.329,226.324 86.186,226.014 86.620 C 225.914 86.762,225.745 86.866,225.640 86.852 C 225.043 86.772,224.836 86.860,225.000 87.126 C 225.176 87.410,225.047 87.475,224.177 87.545 C 223.971 87.561,223.624 87.777,223.406 88.024 C 223.154 88.309,223.085 88.326,223.218 88.069 C 223.386 87.742,223.302 87.731,222.782 88.009 C 222.428 88.198,222.231 88.502,222.343 88.684 C 222.461 88.875,222.411 88.931,222.226 88.816 C 222.049 88.707,221.724 88.798,221.504 89.018 C 221.283 89.239,220.951 89.369,220.766 89.307 C 220.580 89.245,220.211 89.413,219.945 89.679 C 219.679 89.945,219.461 90.081,219.461 89.981 C 219.461 89.745,218.377 90.328,217.635 90.963 C 217.316 91.237,216.821 91.462,216.536 91.464 C 216.251 91.466,216.057 91.652,216.105 91.878 C 216.160 92.137,216.024 92.225,215.739 92.115 C 215.490 92.020,215.057 92.172,214.776 92.453 C 214.494 92.734,214.221 92.930,214.168 92.889 C 213.915 92.692,213.457 92.846,213.602 93.080 C 213.692 93.226,213.464 93.443,213.095 93.563 C 212.727 93.683,212.324 93.817,212.201 93.859 C 212.077 93.902,211.790 93.954,211.562 93.975 C 211.334 93.995,211.056 94.315,210.943 94.686 C 210.830 95.056,210.673 95.205,210.594 95.015 C 210.425 94.615,208.684 95.359,208.300 95.996 C 208.173 96.209,207.895 96.316,207.684 96.235 C 207.473 96.154,206.984 96.362,206.598 96.697 C 206.212 97.031,205.648 97.305,205.343 97.305 C 205.039 97.305,204.790 97.406,204.789 97.530 C 204.789 97.653,204.183 98.004,203.443 98.308 C 202.702 98.612,202.172 98.983,202.264 99.131 C 202.355 99.280,202.322 99.412,202.188 99.424 C 200.980 99.538,199.701 99.999,199.701 100.320 C 199.701 100.473,199.494 100.599,199.242 100.599 C 198.990 100.599,198.709 100.792,198.619 101.029 C 198.528 101.266,198.280 101.393,198.068 101.311 C 197.856 101.230,197.493 101.339,197.262 101.555 C 197.031 101.770,196.644 101.991,196.403 102.045 C 196.161 102.099,195.895 102.245,195.811 102.368 C 195.727 102.492,195.231 102.779,194.707 103.007 C 194.184 103.234,193.834 103.547,193.930 103.703 C 194.026 103.858,193.952 103.890,193.765 103.775 C 193.578 103.660,193.165 103.704,192.848 103.874 C 192.425 104.101,191.972 104.059,191.160 103.720 C 190.549 103.465,189.856 103.330,189.620 103.421 C 189.384 103.512,189.263 103.468,189.352 103.325 C 189.562 102.984,187.857 102.278,187.443 102.534 C 187.269 102.642,187.126 102.573,187.126 102.381 C 187.126 102.174,186.916 102.112,186.611 102.229 C 186.328 102.338,186.195 102.328,186.316 102.207 C 186.563 101.960,184.413 100.874,184.083 101.078 C 183.968 101.149,183.789 101.070,183.686 100.903 C 183.582 100.736,183.247 100.599,182.941 100.599 C 182.636 100.599,182.340 100.472,182.285 100.318 C 182.231 100.163,181.820 99.989,181.374 99.930 C 180.927 99.871,180.467 99.728,180.351 99.612 C 180.235 99.496,179.885 99.401,179.573 99.401 C 179.262 99.401,179.090 99.266,179.192 99.102 C 179.349 98.847,178.511 98.650,177.769 98.767 C 177.646 98.786,177.545 98.652,177.545 98.468 C 177.545 98.281,177.281 98.203,176.946 98.290 C 176.548 98.394,176.347 98.300,176.347 98.008 C 176.347 97.767,176.222 97.647,176.069 97.742 C 175.915 97.836,175.704 97.775,175.599 97.605 C 175.494 97.435,175.292 97.367,175.150 97.455 C 175.008 97.543,174.807 97.478,174.704 97.310 C 174.600 97.143,174.254 97.006,173.934 97.006 C 173.615 97.006,173.353 96.863,173.353 96.689 C 173.353 96.515,173.228 96.449,173.075 96.544 C 172.921 96.639,172.710 96.577,172.605 96.407 C 172.500 96.237,172.298 96.170,172.156 96.257 C 172.014 96.345,171.812 96.278,171.707 96.108 C 171.601 95.938,171.375 95.885,171.203 95.992 C 171.032 96.098,170.805 96.059,170.700 95.906 C 170.395 95.461,168.284 94.563,167.981 94.750 C 167.830 94.843,167.622 94.784,167.519 94.617 C 167.416 94.451,167.036 94.157,166.675 93.965 C 166.058 93.636,166.045 93.650,166.458 94.188 C 166.711 94.517,166.542 94.442,166.060 94.012 C 165.599 93.600,165.163 93.300,165.093 93.344 C 165.022 93.389,164.562 93.218,164.072 92.964 C 163.581 92.710,163.111 92.506,163.027 92.509 C 162.943 92.512,162.807 92.498,162.725 92.478 C 162.642 92.457,162.474 92.418,162.350 92.391 C 162.227 92.364,161.654 92.124,161.078 91.857 C 159.338 91.050,155.863 89.731,155.464 89.725 C 155.258 89.723,155.090 89.631,155.090 89.521 C 155.090 89.329,154.874 89.275,153.615 89.150 C 153.298 89.119,153.103 88.987,153.183 88.858 C 153.263 88.729,153.051 88.623,152.712 88.623 C 152.373 88.623,152.096 88.466,152.096 88.273 C 152.096 88.081,152.011 88.009,151.908 88.112 C 151.805 88.215,151.252 88.104,150.679 87.864 C 150.106 87.625,149.517 87.504,149.369 87.595 C 149.222 87.685,149.102 87.550,149.102 87.293 C 149.102 86.867,148.689 86.708,147.680 86.746 C 147.474 86.754,147.305 86.624,147.305 86.459 C 147.305 86.293,147.036 86.228,146.706 86.314 C 146.377 86.401,146.183 86.349,146.275 86.199 C 146.458 85.902,145.178 85.326,144.058 85.201 C 143.672 85.158,143.268 84.987,143.160 84.820 C 143.052 84.654,142.425 84.346,141.766 84.136 C 141.108 83.926,140.375 83.603,140.137 83.419 C 139.792 83.151,139.757 83.174,139.964 83.533 C 140.130 83.822,139.994 83.782,139.584 83.422 C 139.190 83.077,138.742 82.939,138.418 83.063 C 138.129 83.174,137.987 83.170,138.103 83.054 C 138.379 82.779,136.850 81.986,136.483 82.213 C 136.328 82.309,135.985 82.207,135.722 81.987 C 134.837 81.249,133.099 80.571,132.904 80.887 C 132.796 81.061,132.642 80.990,132.538 80.719 C 132.433 80.446,132.166 80.323,131.898 80.426 C 131.639 80.525,131.437 80.444,131.437 80.240 C 131.437 80.040,131.239 79.952,130.996 80.045 C 130.753 80.138,130.441 80.012,130.303 79.764 C 130.164 79.517,129.723 79.283,129.322 79.245 C 128.921 79.207,128.307 79.016,127.959 78.820 C 127.610 78.624,127.239 78.549,127.135 78.653 C 127.031 78.757,126.946 78.712,126.946 78.553 C 126.946 78.176,124.540 77.254,123.300 77.157 C 123.024 77.135,122.852 77.031,122.917 76.926 C 123.050 76.711,121.727 76.048,121.164 76.048 C 120.964 76.048,120.330 75.798,119.756 75.492 C 119.182 75.187,118.476 74.973,118.187 75.017 C 117.898 75.061,117.732 74.984,117.817 74.846 C 118.027 74.506,116.862 74.157,116.423 74.428 C 116.207 74.562,116.156 74.513,116.289 74.298 C 116.406 74.108,116.360 73.935,116.185 73.915 C 115.730 73.861,115.521 73.794,114.571 73.401 C 114.104 73.208,113.578 73.139,113.402 73.248 C 113.212 73.365,113.168 73.305,113.295 73.100 C 113.477 72.806,113.084 72.603,112.771 72.829 C 112.714 72.871,112.441 72.717,112.165 72.487 C 111.888 72.258,111.582 72.151,111.484 72.248 C 111.386 72.346,111.103 72.223,110.854 71.975 C 110.605 71.726,110.210 71.596,109.976 71.686 C 109.740 71.777,109.631 71.717,109.733 71.553 C 109.898 71.285,109.244 71.109,108.560 71.238 C 108.411 71.266,108.187 71.126,108.064 70.926 C 107.940 70.726,107.569 70.543,107.238 70.518 C 106.907 70.494,106.403 70.280,106.117 70.042 C 105.831 69.805,105.516 69.623,105.418 69.637 C 105.320 69.652,104.713 69.428,104.069 69.140 C 103.425 68.852,102.646 68.664,102.339 68.723 C 102.032 68.783,101.847 68.723,101.929 68.591 C 102.127 68.270,100.858 67.713,99.397 67.480 C 98.696 67.367,98.292 67.165,98.406 66.981 C 98.525 66.788,98.354 66.736,97.951 66.841 C 97.596 66.934,97.305 66.897,97.305 66.759 C 97.305 66.451,96.109 66.021,95.554 66.129 C 95.331 66.172,95.238 66.064,95.347 65.888 C 95.460 65.705,95.283 65.553,94.928 65.531 C 93.800 65.463,92.515 65.019,92.515 64.698 C 92.515 64.571,91.779 64.290,90.879 64.074 C 89.979 63.858,89.313 63.567,89.399 63.428 C 89.486 63.288,89.313 63.153,89.015 63.128 C 87.756 63.022,86.527 62.559,86.527 62.191 C 86.527 62.018,86.438 61.965,86.330 62.073 C 86.222 62.182,85.949 62.117,85.724 61.931 C 85.499 61.744,85.228 61.678,85.123 61.784 C 85.017 61.889,85.087 61.976,85.279 61.976 C 85.472 61.976,85.629 62.169,85.629 62.404 C 85.629 62.640,86.987 64.088,88.647 65.623 L 91.665 68.413 91.528 69.686 C 91.426 70.633,91.496 70.958,91.803 70.958 C 92.030 70.958,92.216 71.115,92.216 71.307 C 92.216 71.500,92.305 71.567,92.414 71.458 C 92.523 71.349,92.858 71.664,93.159 72.158 C 93.459 72.652,93.869 73.022,94.070 72.980 C 94.270 72.938,94.440 73.074,94.447 73.283 C 94.466 73.791,96.629 75.749,97.172 75.749 C 97.410 75.749,97.605 75.883,97.605 76.047 C 97.605 76.635,99.639 78.516,100.020 78.281 C 100.267 78.128,100.316 78.174,100.166 78.417 C 99.941 78.780,100.861 79.699,101.224 79.475 C 101.325 79.413,101.591 79.705,101.816 80.126 C 102.040 80.546,102.604 81.086,103.068 81.326 C 103.532 81.566,103.838 81.881,103.748 82.027 C 103.658 82.173,103.856 82.378,104.187 82.484 C 104.519 82.589,104.790 82.801,104.790 82.954 C 104.790 83.108,104.935 83.234,105.111 83.234 C 105.486 83.234,106.285 83.978,106.293 84.335 C 106.299 84.655,107.798 86.078,108.129 86.078 C 108.269 86.078,108.355 86.145,108.320 86.228 C 108.159 86.611,109.744 88.025,110.157 87.867 C 110.406 87.771,110.524 87.779,110.418 87.885 C 110.173 88.131,111.772 89.820,112.251 89.820 C 112.448 89.820,112.539 89.936,112.452 90.076 C 112.365 90.217,112.627 90.645,113.033 91.027 C 113.558 91.519,113.778 91.597,113.791 91.295 C 113.802 91.060,113.935 91.180,114.088 91.561 C 114.241 91.942,114.502 92.170,114.668 92.067 C 114.834 91.965,114.970 92.019,114.970 92.187 C 114.970 92.599,119.054 96.707,119.463 96.707 C 119.876 96.707,120.690 97.518,121.380 98.617 C 121.776 99.248,121.986 99.376,122.161 99.093 C 122.328 98.822,122.432 98.923,122.503 99.428 C 122.569 99.899,122.968 100.331,123.653 100.673 C 124.229 100.961,124.579 101.197,124.430 101.197 C 124.281 101.197,124.400 101.464,124.694 101.789 C 124.989 102.115,125.350 102.307,125.497 102.216 C 125.643 102.126,125.726 102.224,125.681 102.434 C 125.636 102.645,125.767 102.823,125.973 102.831 C 126.179 102.838,126.355 102.979,126.365 103.144 C 126.391 103.563,127.582 104.789,127.971 104.796 C 128.148 104.799,129.231 105.810,130.376 107.042 C 131.521 108.274,132.633 109.281,132.846 109.281 C 133.059 109.281,133.234 109.498,133.234 109.763 C 133.234 110.067,133.398 110.180,133.683 110.071 C 133.930 109.977,134.136 110.063,134.140 110.264 C 134.145 110.465,134.894 111.302,135.804 112.126 C 136.714 112.949,138.467 114.600,139.700 115.793 C 140.932 116.987,142.137 117.964,142.377 117.964 C 142.618 117.964,142.814 118.094,142.814 118.254 C 142.814 118.857,148.337 124.019,148.648 123.707 C 148.733 123.622,148.802 123.755,148.802 124.002 C 148.802 124.487,150.399 126.048,150.896 126.048 C 151.062 126.048,151.198 126.250,151.198 126.497 C 151.198 126.744,151.338 126.946,151.510 126.946 C 151.682 126.946,152.546 127.687,153.431 128.594 C 154.434 129.620,155.096 130.100,155.191 129.866 C 155.285 129.633,155.351 129.682,155.366 129.995 C 155.379 130.272,155.652 130.582,155.973 130.684 C 156.294 130.786,156.635 131.117,156.731 131.421 C 156.828 131.725,157.609 132.605,158.468 133.377 C 159.327 134.149,160.569 135.273,161.228 135.875 C 161.886 136.478,162.536 136.935,162.672 136.891 C 162.808 136.847,162.849 136.924,162.764 137.061 C 162.618 137.298,164.125 138.922,164.491 138.922 C 164.924 138.922,166.360 140.288,168.076 142.331 C 168.714 143.091,169.399 143.713,169.598 143.713 C 169.798 143.713,170.321 144.117,170.761 144.611 C 171.201 145.105,171.718 145.509,171.908 145.509 C 172.099 145.509,172.177 145.588,172.080 145.684 C 171.841 145.923,173.085 147.321,173.377 147.141 C 173.505 147.062,173.696 147.269,173.801 147.600 C 173.906 147.932,174.185 148.204,174.421 148.204 C 174.657 148.204,174.850 148.316,174.850 148.452 C 174.850 148.589,175.183 148.879,175.589 149.096 C 175.995 149.314,176.265 149.592,176.188 149.716 C 176.027 149.977,177.925 151.706,178.854 152.142 C 179.204 152.307,179.933 153.037,180.473 153.764 C 181.012 154.492,181.821 155.320,182.269 155.605 C 182.717 155.890,183.193 156.298,183.327 156.511 C 183.460 156.724,183.717 156.808,183.897 156.697 C 184.077 156.585,184.153 156.616,184.066 156.765 C 183.978 156.914,184.311 157.440,184.804 157.934 C 185.298 158.428,185.610 158.664,185.498 158.458 C 185.386 158.252,185.373 158.084,185.469 158.084 C 185.565 158.084,185.769 158.414,185.922 158.817 C 186.075 159.220,186.573 159.792,187.029 160.089 C 187.484 160.386,188.289 161.106,188.817 161.690 C 190.183 163.197,190.998 163.579,192.021 163.191 C 192.531 162.997,192.768 162.742,192.636 162.529 C 192.506 162.318,192.554 162.264,192.759 162.391 C 192.943 162.505,193.523 162.189,194.047 161.688 C 194.571 161.188,195.087 160.778,195.194 160.778 C 195.301 160.778,195.949 160.240,196.635 159.581 C 197.320 158.922,197.991 158.383,198.125 158.383 C 198.469 158.383,199.556 157.088,199.463 156.789 C 199.421 156.653,199.518 156.624,199.679 156.723 C 199.959 156.896,200.636 156.455,201.841 155.314 C 202.146 155.026,202.478 154.790,202.580 154.790 C 202.904 154.790,204.753 153.057,204.596 152.900 C 204.514 152.817,204.726 152.661,205.067 152.552 C 205.409 152.444,205.689 152.229,205.689 152.076 C 205.689 151.922,205.810 151.830,205.958 151.871 C 206.106 151.912,206.232 151.823,206.237 151.673 C 206.242 151.523,206.670 151.222,207.186 151.005 C 207.703 150.788,208.050 150.487,207.957 150.337 C 207.865 150.187,208.124 149.980,208.535 149.877 C 208.946 149.773,209.281 149.482,209.281 149.228 C 209.281 148.975,209.416 148.850,209.581 148.952 C 209.746 149.054,209.880 148.994,209.880 148.820 C 209.880 148.646,210.056 148.503,210.270 148.503 C 210.484 148.503,211.259 147.899,211.991 147.162 C 212.724 146.424,213.496 145.818,213.707 145.814 C 213.918 145.811,214.168 145.606,214.263 145.359 C 214.358 145.112,214.620 144.910,214.845 144.910 C 215.071 144.910,215.473 144.579,215.738 144.173 C 216.004 143.768,216.481 143.354,216.798 143.254 C 217.115 143.153,217.322 142.979,217.259 142.868 C 217.196 142.756,217.454 142.366,217.832 142.002 C 218.211 141.637,218.564 141.471,218.618 141.632 C 218.672 141.793,219.378 141.317,220.188 140.573 C 220.998 139.830,221.806 139.219,221.983 139.217 C 222.173 139.214,222.153 139.116,221.934 138.977 C 221.686 138.819,221.911 138.615,222.612 138.361 C 223.190 138.153,223.614 137.890,223.555 137.778 C 223.396 137.475,224.334 136.677,224.850 136.677 C 225.097 136.677,225.266 136.508,225.225 136.302 C 225.183 136.097,225.345 135.928,225.583 135.928 C 225.967 135.928,226.611 135.451,228.144 134.032 C 228.391 133.803,228.900 133.456,229.275 133.260 C 229.650 133.064,229.878 132.776,229.781 132.620 C 229.684 132.463,229.815 132.335,230.072 132.335 C 230.329 132.335,230.780 132.100,231.074 131.811 C 231.368 131.523,232.386 130.692,233.338 129.964 C 234.289 129.237,235.261 128.364,235.498 128.026 C 235.734 127.688,235.928 127.523,235.928 127.659 C 235.928 127.795,236.381 127.522,236.934 127.052 C 237.487 126.582,238.701 125.615,239.633 124.904 C 240.591 124.172,241.239 123.469,241.126 123.286 C 241.015 123.107,241.063 123.047,241.233 123.152 C 241.403 123.256,241.902 123.008,242.343 122.599 C 242.784 122.191,243.250 121.856,243.379 121.856 C 243.508 121.856,243.973 121.486,244.413 121.033 C 245.608 119.802,246.377 119.162,246.660 119.162 C 246.976 119.162,247.863 118.201,247.858 117.864 C 247.856 117.727,247.954 117.525,248.077 117.415 C 248.199 117.305,248.203 117.384,248.084 117.590 C 247.674 118.302,248.491 117.961,248.980 117.216 C 249.249 116.804,249.665 116.467,249.902 116.467 C 250.140 116.467,250.265 116.355,250.180 116.217 C 250.095 116.079,250.491 115.745,251.061 115.473 C 251.630 115.202,252.096 114.852,252.096 114.696 C 252.096 114.539,252.367 114.325,252.699 114.220 C 253.031 114.115,253.231 113.913,253.144 113.772 C 253.057 113.631,253.259 113.429,253.594 113.323 C 253.929 113.217,254.634 112.735,255.162 112.254 C 255.690 111.772,256.226 111.377,256.354 111.377 C 256.482 111.377,256.587 111.167,256.587 110.910 C 256.587 110.654,256.704 110.516,256.846 110.604 C 257.197 110.821,259.913 108.679,259.708 108.347 C 259.619 108.202,259.806 108.084,260.125 108.084 C 260.736 108.084,261.492 107.400,261.202 107.111 C 261.109 107.017,261.346 106.843,261.729 106.724 C 262.428 106.505,264.727 104.760,266.217 103.317 C 266.655 102.892,267.368 102.275,267.800 101.946 C 268.233 101.617,268.907 101.078,269.300 100.749 C 269.693 100.419,270.385 99.880,270.838 99.551 C 271.815 98.841,272.754 97.875,272.754 97.582 C 272.754 97.466,272.923 97.391,273.129 97.414 C 273.335 97.436,273.528 97.332,273.557 97.182 C 273.587 97.032,274.035 96.731,274.552 96.514 C 275.068 96.297,275.407 95.982,275.303 95.814 C 275.199 95.646,275.324 95.509,275.581 95.509 C 275.838 95.509,276.048 95.366,276.048 95.192 C 276.048 95.018,276.174 94.953,276.329 95.049 C 276.483 95.144,276.719 95.048,276.853 94.834 C 276.986 94.621,277.471 94.208,277.929 93.917 C 278.397 93.619,278.672 93.241,278.556 93.054 C 278.431 92.852,278.487 92.806,278.700 92.938 C 278.900 93.062,279.439 92.763,279.966 92.235 C 280.471 91.730,281.008 91.317,281.158 91.317 C 281.309 91.317,281.600 91.048,281.806 90.719 C 282.012 90.389,282.329 90.120,282.511 90.120 C 282.881 90.120,284.010 88.966,283.932 88.666 C 283.905 88.560,283.960 88.406,284.055 88.323 C 284.150 88.241,284.131 88.342,284.012 88.548 C 283.590 89.283,284.376 88.906,285.061 88.046 C 285.445 87.565,285.849 87.226,285.959 87.295 C 286.069 87.363,286.343 87.192,286.568 86.915 C 286.915 86.488,286.913 86.450,286.556 86.665 C 286.270 86.837,286.204 86.808,286.349 86.573 C 286.466 86.383,286.725 86.228,286.924 86.228 C 287.484 86.228,289.556 84.730,289.383 84.450 C 289.298 84.313,289.637 84.032,290.135 83.826 C 290.633 83.620,291.175 83.200,291.339 82.893 C 291.504 82.586,291.786 82.335,291.967 82.335 C 292.148 82.335,292.603 82.032,292.978 81.662 C 293.353 81.291,294.022 80.719,294.464 80.389 C 294.906 80.060,295.611 79.487,296.031 79.117 C 296.451 78.746,296.943 78.441,297.125 78.439 C 297.306 78.436,297.253 78.303,297.006 78.144 C 296.643 77.909,296.686 77.853,297.231 77.849 C 297.601 77.846,297.904 77.710,297.904 77.545 C 297.904 77.380,298.073 77.279,298.278 77.320 C 298.484 77.362,298.622 77.237,298.585 77.043 C 298.548 76.849,298.918 76.513,299.408 76.296 C 299.898 76.079,300.299 75.725,300.299 75.508 C 300.299 75.292,300.426 75.193,300.580 75.288 C 300.735 75.384,301.000 75.223,301.170 74.931 C 301.340 74.640,301.483 74.523,301.488 74.672 C 301.493 74.821,301.763 74.702,302.089 74.408 C 302.414 74.113,302.609 73.757,302.522 73.616 C 302.435 73.475,302.597 73.449,302.881 73.558 C 303.272 73.709,303.352 73.639,303.211 73.271 C 303.080 72.929,303.153 72.834,303.458 72.951 C 303.697 73.043,303.892 72.969,303.892 72.787 C 303.892 72.604,304.098 72.455,304.349 72.455 C 304.600 72.455,304.933 72.118,305.090 71.707 C 305.246 71.295,305.453 70.958,305.549 70.958 C 305.645 70.958,305.635 71.103,305.525 71.280 C 305.416 71.456,305.610 71.424,305.957 71.208 C 306.303 70.991,306.587 70.652,306.587 70.455 C 306.587 70.257,306.742 69.999,306.932 69.882 C 307.154 69.745,307.197 69.800,307.051 70.036 C 306.884 70.305,306.992 70.298,307.454 70.010 C 307.931 69.712,308.084 69.313,308.084 68.363 C 308.084 67.123,308.119 67.083,311.602 64.301 C 315.952 60.828,315.609 61.019,316.771 61.424 C 317.591 61.710,317.786 61.686,318.018 61.270 C 318.169 61.000,318.492 60.778,318.734 60.778 C 318.976 60.778,319.328 60.442,319.516 60.030 C 319.705 59.614,320.109 59.281,320.425 59.281 C 320.738 59.281,320.910 59.147,320.808 58.982 C 320.707 58.817,320.833 58.683,321.090 58.683 C 321.347 58.683,321.795 58.447,322.086 58.159 C 322.377 57.871,322.987 57.393,323.443 57.098 C 323.898 56.802,324.191 56.432,324.094 56.274 C 323.996 56.117,324.107 55.988,324.339 55.988 C 324.932 55.988,329.042 52.685,329.042 52.208 C 329.042 51.992,329.210 51.877,329.416 51.952 C 329.622 52.027,330.504 51.424,331.377 50.611 C 332.249 49.798,333.058 49.093,333.173 49.043 C 333.289 48.993,333.346 48.841,333.301 48.705 C 333.256 48.570,333.335 48.530,333.477 48.618 C 333.818 48.829,335.083 47.933,334.889 47.619 C 334.806 47.485,335.139 47.209,335.629 47.006 C 336.119 46.803,336.459 46.539,336.385 46.419 C 336.311 46.299,336.750 45.931,337.362 45.601 C 337.973 45.270,338.436 44.835,338.391 44.633 C 338.346 44.432,338.430 44.342,338.578 44.433 C 338.726 44.525,339.208 44.265,339.648 43.857 C 340.089 43.448,340.574 43.114,340.726 43.114 C 340.878 43.114,341.212 42.710,341.467 42.216 C 341.723 41.722,342.003 41.317,342.091 41.317 C 342.179 41.317,342.168 41.452,342.066 41.617 C 341.964 41.781,341.994 41.916,342.131 41.916 C 342.458 41.916,343.572 40.633,343.486 40.355 C 343.450 40.238,343.629 40.221,343.884 40.319 C 344.191 40.437,344.403 40.283,344.513 39.863 C 344.604 39.514,344.798 39.302,344.945 39.393 C 345.091 39.483,345.615 39.115,346.108 38.574 C 346.602 38.033,347.006 37.687,347.006 37.805 C 347.006 38.016,347.293 37.806,349.366 36.078 C 349.959 35.584,350.580 35.077,350.746 34.952 C 350.912 34.827,351.420 34.445,351.874 34.105 C 352.329 33.764,352.629 33.370,352.543 33.230 C 352.456 33.090,352.543 32.878,352.736 32.759 C 352.955 32.624,353.006 32.672,352.873 32.888 C 352.755 33.078,352.786 33.234,352.941 33.234 C 353.097 33.234,353.294 32.964,353.380 32.635 C 353.466 32.305,353.767 32.036,354.049 32.036 C 354.617 32.036,356.779 30.258,356.663 29.886 C 356.623 29.757,356.929 29.566,357.342 29.463 C 357.755 29.359,358.330 28.974,358.618 28.607 C 358.907 28.240,359.444 27.779,359.811 27.582 C 360.178 27.385,360.479 27.019,360.479 26.768 C 360.479 26.517,360.613 26.395,360.776 26.495 C 360.939 26.596,361.417 26.335,361.837 25.914 C 362.258 25.494,362.701 25.150,362.821 25.150 C 362.942 25.150,363.264 24.914,363.537 24.626 C 363.811 24.338,364.386 23.832,364.816 23.503 C 365.246 23.174,365.915 22.635,366.303 22.305 C 366.691 21.976,367.360 21.437,367.790 21.108 C 369.240 19.997,370.445 19.015,371.002 18.488 C 371.307 18.200,371.682 17.964,371.835 17.964 C 371.987 17.964,372.374 17.632,372.693 17.226 C 373.012 16.820,373.329 16.543,373.397 16.610 C 373.464 16.678,374.172 16.134,374.969 15.402 C 375.766 14.671,376.516 14.072,376.636 14.072 C 376.924 14.072,377.803 13.091,377.798 12.774 C 377.796 12.637,377.895 12.435,378.017 12.325 C 378.140 12.216,378.143 12.294,378.024 12.500 C 377.606 13.226,378.399 12.863,379.132 11.993 C 379.540 11.508,379.937 11.174,380.014 11.251 C 380.091 11.329,380.342 11.161,380.571 10.878 C 380.932 10.433,380.928 10.398,380.539 10.619 C 380.271 10.771,380.191 10.764,380.339 10.602 C 380.477 10.452,380.711 10.329,380.859 10.329 C 381.163 10.329,382.569 9.250,383.881 8.009 C 384.359 7.556,384.867 7.186,385.008 7.186 C 385.150 7.186,385.343 6.984,385.438 6.737 C 385.532 6.490,385.813 6.287,386.061 6.287 C 386.309 6.287,386.723 5.879,386.981 5.379 C 387.239 4.880,387.589 4.557,387.758 4.661 C 387.927 4.766,388.292 4.642,388.569 4.386 C 390.101 2.968,390.444 2.695,390.697 2.695 C 390.850 2.695,391.254 2.340,391.595 1.906 C 391.936 1.472,392.216 1.219,392.216 1.344 C 392.216 1.468,392.418 1.403,392.665 1.198 C 393.607 0.415,393.175 0.064,391.301 0.089 C 389.866 0.107,389.338 0.250,388.774 0.773 M89.148 80.015 C 86.434 83.854,85.329 85.610,85.329 86.086 C 85.329 86.356,84.070 88.418,82.531 90.669 C 80.992 92.919,78.727 96.243,77.497 98.054 C 76.267 99.865,74.482 102.476,73.531 103.855 C 72.579 105.235,70.376 108.468,68.634 111.041 C 65.290 115.980,64.938 116.498,54.642 131.587 C 47.513 142.036,45.182 145.447,42.366 149.551 C 41.349 151.033,38.651 155.007,36.369 158.383 C 34.088 161.759,31.876 165.010,31.455 165.608 C 31.033 166.206,30.520 166.947,30.313 167.255 C 30.107 167.563,28.638 169.701,27.050 172.006 C 22.921 177.997,18.263 185.036,18.268 185.275 C 18.313 187.291,19.603 186.305,23.678 181.138 C 27.235 176.628,29.526 173.746,30.397 172.685 C 30.632 172.400,31.791 170.918,32.974 169.392 C 34.156 167.865,36.092 165.404,37.274 163.922 C 39.247 161.451,46.841 151.850,48.745 149.422 C 49.454 148.518,53.000 144.041,53.981 142.812 C 54.179 142.564,56.088 140.139,58.223 137.423 C 60.357 134.707,64.467 129.501,67.354 125.855 C 70.242 122.208,73.144 118.522,73.802 117.663 C 74.461 116.804,75.358 115.678,75.794 115.161 C 76.231 114.645,78.963 111.190,81.866 107.485 C 84.768 103.780,87.343 100.508,87.589 100.214 C 87.835 99.919,89.130 98.303,90.466 96.621 C 91.803 94.939,92.979 93.530,93.080 93.489 C 93.276 93.411,98.422 97.660,108.528 106.245 C 110.342 107.786,112.100 109.268,112.435 109.538 C 113.799 110.639,116.627 113.022,116.766 113.188 C 116.849 113.286,118.203 114.434,119.776 115.740 C 121.348 117.046,124.178 119.414,126.063 121.003 C 127.948 122.593,131.385 125.490,133.699 127.441 C 136.014 129.392,139.517 132.334,141.484 133.980 C 143.451 135.625,145.127 137.040,145.210 137.123 C 145.292 137.207,146.168 137.956,147.156 138.787 C 148.144 139.619,150.232 141.379,151.796 142.700 C 153.361 144.021,155.995 146.237,157.651 147.626 C 159.307 149.014,164.898 153.723,170.076 158.090 C 182.523 168.587,181.966 168.155,182.558 167.781 C 183.750 167.030,185.672 169.001,151.782 136.228 C 151.186 135.651,147.207 131.814,142.939 127.701 C 134.931 119.982,129.033 114.267,119.457 104.946 C 116.408 101.979,110.616 96.385,106.586 92.515 C 102.556 88.645,97.573 83.829,95.513 81.812 C 91.058 77.452,90.977 77.429,89.148 80.015 M303.554 82.094 C 302.350 83.132,300.138 84.993,298.639 86.228 C 297.140 87.463,294.319 89.820,292.370 91.467 C 290.420 93.114,287.444 95.606,285.755 97.006 C 284.067 98.406,278.680 102.919,273.785 107.036 C 268.889 111.153,263.590 115.581,262.008 116.877 C 260.426 118.173,259.064 119.319,258.982 119.423 C 258.900 119.527,257.620 120.621,256.138 121.854 C 254.656 123.086,253.106 124.388,252.695 124.746 C 252.283 125.104,248.097 128.609,243.394 132.534 C 235.461 139.153,231.118 142.794,217.365 154.350 C 214.484 156.772,209.459 160.985,206.199 163.712 C 201.578 167.577,200.291 168.806,200.360 169.290 C 200.510 170.337,201.551 170.167,203.362 168.799 C 204.297 168.093,206.642 166.370,208.571 164.970 C 210.501 163.570,212.764 161.927,213.600 161.319 C 214.436 160.711,215.827 159.700,216.691 159.074 C 217.555 158.447,218.989 157.395,219.879 156.737 C 220.768 156.078,222.809 154.596,224.414 153.443 C 226.019 152.290,227.885 150.936,228.561 150.434 C 230.359 149.097,260.031 127.466,272.904 118.107 C 278.997 113.678,284.535 109.644,285.211 109.144 C 285.888 108.643,288.245 106.918,290.451 105.310 C 292.657 103.702,295.606 101.548,297.006 100.524 C 298.406 99.500,300.614 97.898,301.913 96.966 L 304.275 95.269 309.997 102.201 C 316.623 110.227,320.901 115.392,324.419 119.611 C 327.282 123.045,343.008 142.058,347.415 147.416 C 348.382 148.590,349.460 149.888,349.811 150.301 C 350.162 150.713,351.729 152.598,353.293 154.489 C 354.858 156.381,356.362 158.199,356.635 158.530 C 364.397 167.913,368.354 172.702,369.718 174.363 C 372.360 177.582,376.570 182.630,378.034 184.335 C 379.369 185.890,380.873 186.612,381.490 185.995 C 381.680 185.805,380.399 183.786,377.813 180.202 C 373.171 173.769,364.404 161.561,361.826 157.939 C 360.838 156.551,358.064 152.681,355.661 149.339 C 353.258 145.998,348.196 138.952,344.412 133.683 C 340.628 128.413,334.385 119.723,330.539 114.371 C 321.845 102.274,321.024 101.129,319.910 99.555 C 318.140 97.053,314.201 91.555,313.099 90.049 C 312.481 89.205,311.973 88.303,311.970 88.045 C 311.958 87.167,307.080 80.396,306.388 80.297 C 305.949 80.234,305.046 80.807,303.554 82.094 " stroke="none" fill="#744cfb" fill-rule="evenodd"></path><path id="path1" d="M82.165 63.294 C 81.518 64.240,80.651 65.470,80.240 66.027 C 79.828 66.584,78.683 68.203,77.695 69.624 C 76.707 71.046,75.393 72.866,74.775 73.670 C 74.158 74.474,73.653 75.196,73.653 75.275 C 73.653 75.353,72.811 76.564,71.781 77.965 C 70.752 79.367,69.439 81.197,68.862 82.033 C 68.286 82.869,66.467 85.431,64.820 87.727 C 63.174 90.023,60.681 93.532,59.281 95.524 C 57.882 97.517,56.534 99.403,56.287 99.715 C 56.040 100.027,55.056 101.398,54.100 102.761 C 53.143 104.124,51.257 106.793,49.908 108.692 C 48.559 110.591,45.569 114.809,43.263 118.066 C 40.958 121.322,37.927 125.579,36.527 127.526 C 35.127 129.472,32.997 132.462,31.792 134.170 C 30.588 135.878,27.624 140.057,25.205 143.456 C 22.787 146.856,20.135 150.601,19.311 151.780 C 17.672 154.125,13.666 159.761,11.078 163.362 C 9.197 165.979,8.581 166.848,4.002 173.353 C 3.017 174.753,1.713 176.604,1.105 177.467 C 0.226 178.714,0.000 179.312,0.000 180.386 L 0.000 181.737 6.662 181.732 C 10.326 181.729,13.460 181.628,13.626 181.507 C 13.792 181.386,14.662 180.210,15.557 178.892 C 16.453 177.575,17.758 175.689,18.457 174.701 C 19.156 173.713,20.510 171.759,21.466 170.359 C 22.421 168.960,23.309 167.680,23.438 167.515 C 23.989 166.813,27.529 161.816,29.098 159.524 C 30.035 158.155,31.464 156.093,32.272 154.940 C 33.081 153.787,34.605 151.607,35.659 150.094 C 36.713 148.581,38.922 145.420,40.569 143.070 C 44.394 137.609,46.125 135.130,48.061 132.335 C 50.158 129.308,56.656 120.008,58.101 117.964 C 61.194 113.590,65.445 107.495,67.422 104.601 C 68.194 103.470,69.636 101.400,70.627 100.000 C 72.762 96.983,74.521 94.474,76.083 92.216 C 76.710 91.310,78.032 89.424,79.021 88.024 C 80.010 86.624,81.843 83.997,83.096 82.186 C 84.348 80.374,86.237 77.680,87.292 76.198 C 91.900 69.724,91.847 70.233,88.265 66.854 C 84.742 63.530,84.331 63.110,83.808 62.299 L 83.341 61.574 82.165 63.294 M312.576 64.967 C 307.610 68.934,307.622 68.856,311.278 73.503 C 312.323 74.831,312.355 74.874,313.482 76.490 C 314.053 77.309,314.632 78.118,314.767 78.286 C 315.334 78.992,320.859 86.551,331.523 101.207 C 335.181 106.234,338.645 110.981,339.222 111.756 C 339.798 112.531,340.779 113.875,341.401 114.741 C 342.024 115.608,343.573 117.734,344.844 119.466 C 346.116 121.198,347.560 123.173,348.054 123.856 C 348.548 124.538,354.139 132.193,360.479 140.865 C 366.819 149.538,372.207 156.926,372.452 157.284 C 373.072 158.188,382.042 170.451,382.564 171.108 C 382.695 171.272,383.270 172.078,383.841 172.897 C 384.413 173.717,384.988 174.525,385.120 174.694 C 385.252 174.862,386.467 176.482,387.819 178.293 L 390.277 181.587 395.139 181.669 L 400.000 181.751 400.000 180.096 C 400.000 178.298,400.032 178.355,395.542 172.156 C 394.529 170.756,392.872 168.405,391.861 166.932 C 390.849 165.459,389.067 162.941,387.900 161.336 C 386.733 159.732,384.970 157.268,383.982 155.861 C 382.032 153.083,381.268 152.001,377.409 146.557 C 376.008 144.581,374.720 142.762,374.547 142.515 C 374.375 142.268,373.225 140.651,371.992 138.922 C 370.759 137.193,369.374 135.240,368.914 134.581 C 367.893 133.118,365.383 129.515,364.540 128.301 C 364.200 127.812,363.787 127.252,363.623 127.056 C 363.458 126.861,362.313 125.259,361.078 123.496 C 359.843 121.733,357.889 118.970,356.737 117.357 C 355.584 115.743,354.472 114.176,354.266 113.873 C 354.061 113.571,352.219 110.966,350.174 108.084 C 348.129 105.202,345.694 101.766,344.763 100.449 C 343.831 99.132,341.227 95.463,338.975 92.296 C 336.723 89.129,334.274 85.660,333.533 84.588 C 332.792 83.516,331.002 80.987,329.556 78.969 C 328.110 76.951,326.553 74.760,326.095 74.102 C 319.456 64.541,317.648 62.154,316.979 62.066 C 316.516 62.004,315.196 62.874,312.576 64.967 M281.497 133.293 C 280.943 133.848,281.000 143.111,281.563 143.880 C 282.138 144.665,292.333 144.785,292.821 144.012 C 293.130 143.523,293.228 134.179,292.932 133.408 C 292.697 132.795,282.102 132.689,281.497 133.293 M297.970 133.287 C 297.410 133.847,297.462 143.104,298.030 143.880 C 298.605 144.665,308.797 144.785,309.292 144.012 C 309.455 143.757,309.547 141.301,309.505 138.323 L 309.431 133.084 303.884 133.003 C 299.821 132.943,298.238 133.019,297.970 133.287 M81.138 140.627 C 80.077 141.006,79.940 141.665,79.940 146.407 C 79.940 152.618,79.393 152.129,86.229 152.028 L 91.766 151.946 91.848 146.477 L 91.930 141.008 91.155 140.714 C 90.360 140.411,81.945 140.339,81.138 140.627 M97.605 140.627 C 96.538 141.008,96.407 141.658,96.407 146.577 C 96.407 152.626,95.832 152.130,102.734 152.028 L 108.234 151.946 108.315 146.477 L 108.397 141.008 107.622 140.714 C 106.827 140.411,98.412 140.339,97.605 140.627 M281.448 149.082 C 281.272 149.410,281.138 151.688,281.138 154.341 C 281.138 160.680,280.629 160.180,287.076 160.180 C 293.671 160.180,293.114 160.718,293.114 154.341 C 293.114 150.758,293.006 149.114,292.754 148.862 C 292.067 148.175,281.826 148.374,281.448 149.082 M297.915 149.082 C 297.376 150.088,297.513 159.147,298.075 159.709 C 298.682 160.316,308.627 160.415,309.222 159.820 C 309.473 159.569,309.581 157.924,309.581 154.341 C 309.581 150.758,309.473 149.114,309.222 148.862 C 308.535 148.175,298.294 148.374,297.915 149.082 M80.254 157.159 C 79.708 158.178,79.847 166.930,80.417 167.500 C 80.825 167.908,81.683 167.966,86.330 167.896 L 91.766 167.814 91.766 162.275 L 91.766 156.737 86.167 156.655 C 80.871 156.578,80.550 156.605,80.254 157.159 M96.773 156.940 C 96.252 157.460,96.261 166.751,96.783 167.465 C 97.118 167.923,97.752 167.969,102.696 167.896 L 108.234 167.814 108.234 162.275 L 108.234 156.737 102.686 156.655 C 98.624 156.596,97.041 156.672,96.773 156.940 M52.994 184.709 C 52.582 184.845,51.063 185.112,49.619 185.302 C 48.174 185.492,46.692 185.766,46.325 185.909 C 45.959 186.053,44.513 186.539,43.114 186.989 C 32.406 190.432,23.460 198.598,21.106 207.078 C 20.174 210.436,20.085 210.947,19.889 214.072 C 19.226 224.632,22.994 232.251,31.761 238.081 C 37.797 242.094,43.277 244.254,56.287 247.748 C 57.852 248.168,59.805 248.710,60.629 248.952 C 61.452 249.194,62.732 249.539,63.473 249.719 C 64.986 250.087,71.681 252.249,72.605 252.668 C 72.934 252.817,74.114 253.349,75.226 253.850 C 83.857 257.735,87.442 264.509,84.757 271.856 C 77.567 291.534,36.699 290.535,33.227 270.597 C 32.707 267.613,33.280 267.827,25.535 267.722 C 16.096 267.593,16.413 267.492,16.784 270.509 C 18.487 284.384,29.091 295.398,43.713 298.480 C 44.454 298.636,45.599 298.904,46.257 299.075 C 47.745 299.462,69.409 299.488,71.108 299.105 C 76.642 297.858,78.702 297.179,82.485 295.357 C 92.096 290.729,98.491 282.899,100.333 273.503 C 100.781 271.215,101.020 262.937,100.651 262.474 C 100.498 262.283,100.283 261.379,100.173 260.466 C 99.433 254.338,94.489 248.086,86.228 242.831 C 84.330 241.624,77.671 238.625,76.880 238.621 C 76.669 238.620,76.146 238.436,75.717 238.212 C 75.288 237.988,74.210 237.631,73.322 237.419 C 72.433 237.207,71.504 236.920,71.257 236.782 C 70.834 236.546,69.864 236.290,64.820 235.083 C 63.668 234.807,62.590 234.500,62.425 234.401 C 62.260 234.302,61.250 234.046,60.180 233.832 C 59.109 233.618,58.099 233.346,57.934 233.228 C 57.769 233.109,57.096 232.919,56.437 232.806 C 50.807 231.835,42.344 227.892,39.218 224.783 C 30.932 216.543,36.376 202.796,49.161 199.676 C 50.034 199.463,50.888 199.187,51.058 199.063 C 52.325 198.137,66.324 198.152,67.505 199.080 C 67.675 199.214,68.353 199.419,69.012 199.537 C 71.582 199.995,76.012 202.283,78.617 204.497 C 80.786 206.340,82.973 209.832,83.406 212.142 C 83.527 212.792,83.810 213.761,84.033 214.296 L 84.439 215.269 91.770 215.269 L 99.102 215.269 99.102 213.229 C 99.102 200.040,86.072 187.800,69.162 185.104 C 65.999 184.600,54.197 184.312,52.994 184.709 M194.611 184.727 C 194.034 184.865,192.438 185.133,191.063 185.323 C 189.688 185.513,188.273 185.782,187.919 185.920 C 187.565 186.058,186.130 186.538,184.731 186.987 C 168.929 192.051,160.017 204.648,161.635 219.632 C 162.807 230.483,169.723 237.865,183.982 243.485 C 186.850 244.616,190.873 245.851,197.754 247.713 C 207.174 250.263,212.323 251.816,214.222 252.680 C 214.551 252.829,215.696 253.325,216.766 253.780 C 227.643 258.409,230.468 268.564,223.305 277.278 C 221.447 279.539,215.067 283.808,213.518 283.827 C 213.296 283.830,212.690 284.028,212.171 284.267 C 207.160 286.577,194.837 286.579,188.399 284.270 C 181.228 281.699,175.799 276.483,175.010 271.407 C 174.398 267.473,174.871 267.674,166.223 267.669 C 158.396 267.664,158.382 267.668,158.387 269.846 C 158.418 281.122,168.814 293.413,181.737 297.451 C 187.594 299.282,187.008 299.220,199.462 299.331 C 206.443 299.393,211.621 299.315,212.486 299.135 C 231.803 295.115,242.318 283.865,242.318 267.216 C 242.318 258.294,240.263 253.316,234.139 247.399 C 231.832 245.170,223.148 239.820,221.837 239.820 C 221.665 239.820,220.954 239.561,220.258 239.243 C 219.561 238.926,218.592 238.571,218.103 238.454 C 217.615 238.337,217.081 238.142,216.916 238.022 C 216.751 237.901,215.876 237.630,214.970 237.418 C 214.064 237.206,213.121 236.920,212.874 236.782 C 212.627 236.645,211.617 236.337,210.629 236.098 C 209.641 235.860,207.754 235.382,206.437 235.035 C 205.120 234.689,203.166 234.201,202.096 233.951 C 201.025 233.701,199.880 233.378,199.551 233.233 C 199.222 233.088,198.481 232.885,197.904 232.782 C 194.505 232.177,186.637 228.990,183.383 226.900 C 172.036 219.613,176.538 203.034,190.770 199.697 C 191.647 199.491,192.505 199.213,192.675 199.080 C 193.863 198.146,207.921 198.132,209.101 199.063 C 209.283 199.206,209.970 199.420,210.628 199.539 C 216.984 200.687,223.425 206.194,225.000 211.826 C 225.231 212.650,225.536 213.728,225.680 214.222 L 225.941 215.120 233.369 215.200 L 240.798 215.280 240.647 212.206 C 240.013 199.267,227.306 187.737,210.778 185.105 C 207.586 184.596,196.264 184.332,194.611 184.727 M122.605 185.848 C 122.275 185.930,121.907 186.150,121.786 186.337 C 121.426 186.892,121.506 296.951,121.867 297.624 C 122.247 298.335,136.370 298.540,137.066 297.844 C 137.343 297.567,137.425 284.722,137.425 241.849 L 137.425 186.213 136.657 185.921 C 135.889 185.629,123.735 185.566,122.605 185.848 M296.131 186.007 C 295.733 186.211,295.283 186.781,295.131 187.275 C 294.980 187.769,294.403 189.319,293.849 190.719 C 293.295 192.118,292.654 193.802,292.425 194.461 C 292.195 195.120,291.030 198.219,289.837 201.347 C 286.431 210.272,285.094 213.782,282.193 221.407 C 281.441 223.383,280.363 226.213,279.797 227.695 C 277.843 232.817,276.037 237.583,275.259 239.671 C 274.830 240.823,274.367 242.036,274.229 242.365 C 274.092 242.695,273.554 244.109,273.035 245.509 C 272.515 246.909,271.971 248.323,271.826 248.653 C 271.680 248.982,271.367 249.790,271.131 250.449 C 270.894 251.108,270.411 252.388,270.059 253.293 C 269.706 254.199,269.168 255.614,268.862 256.437 C 268.557 257.260,268.020 258.675,267.669 259.581 C 267.319 260.487,266.567 262.507,265.998 264.072 C 265.430 265.636,264.834 267.186,264.674 267.515 C 264.514 267.844,263.971 269.259,263.468 270.659 C 262.964 272.058,262.356 273.628,262.115 274.147 C 261.874 274.666,261.677 275.167,261.677 275.260 C 261.677 275.354,261.064 277.017,260.316 278.958 C 258.984 282.411,257.475 286.382,256.132 289.970 C 255.762 290.958,255.024 292.874,254.491 294.228 C 253.844 295.874,253.587 296.941,253.714 297.447 L 253.904 298.204 261.646 298.204 C 267.728 298.204,269.459 298.118,269.719 297.805 C 269.990 297.477,273.431 288.364,275.051 283.683 C 275.279 283.024,275.594 282.216,275.752 281.886 C 276.028 281.311,281.138 267.332,281.138 267.153 C 281.138 267.105,291.229 267.066,303.564 267.066 L 325.989 267.066 326.284 267.889 C 328.319 273.565,332.404 284.718,332.616 285.180 C 332.768 285.509,333.054 286.317,333.252 286.976 C 333.449 287.635,333.710 288.308,333.830 288.473 C 333.951 288.638,334.146 289.177,334.263 289.671 C 334.381 290.165,334.652 290.973,334.866 291.467 C 335.079 291.961,335.689 293.510,336.221 294.910 C 336.753 296.310,337.326 297.624,337.493 297.829 C 337.921 298.355,352.709 298.369,353.234 297.844 C 353.743 297.335,353.687 296.847,352.886 294.784 C 351.982 292.460,349.741 286.599,348.353 282.934 C 346.005 276.734,344.874 273.775,344.631 273.204 C 344.492 272.874,343.872 271.257,343.254 269.611 C 341.202 264.142,338.500 257.014,336.615 252.096 C 335.889 250.202,335.043 247.979,334.735 247.156 C 334.427 246.332,333.888 244.918,333.538 244.012 C 332.699 241.846,331.163 237.764,329.651 233.683 C 328.980 231.871,328.302 230.120,328.144 229.790 C 327.985 229.461,327.446 228.046,326.946 226.647 C 326.446 225.247,325.907 223.832,325.749 223.503 C 325.590 223.174,325.051 221.759,324.551 220.359 C 324.051 218.960,323.512 217.545,323.353 217.216 C 323.195 216.886,322.656 215.472,322.156 214.072 C 321.655 212.672,321.116 211.257,320.958 210.928 C 320.800 210.599,320.258 209.184,319.755 207.784 C 319.252 206.385,318.643 204.815,318.402 204.296 C 318.161 203.777,317.964 203.249,317.964 203.122 C 317.964 202.863,316.652 199.453,315.997 198.009 C 315.762 197.490,315.569 196.922,315.569 196.746 C 315.569 196.571,315.372 195.985,315.130 195.444 C 314.889 194.904,314.362 193.585,313.959 192.515 C 311.686 186.476,311.537 186.159,310.840 185.894 C 309.723 185.470,296.993 185.568,296.131 186.007 M370.265 186.003 C 369.789 186.353,369.761 189.984,369.833 242.216 L 369.910 298.054 377.246 298.134 C 383.876 298.207,384.617 298.165,384.955 297.703 C 385.700 296.684,385.479 186.976,384.731 186.228 C 384.148 185.645,381.507 185.315,381.849 185.868 C 382.366 186.705,381.409 186.952,380.173 186.302 C 378.655 185.502,371.248 185.279,370.265 186.003 M304.354 208.179 C 304.464 208.703,304.738 209.536,304.963 210.030 C 305.188 210.524,306.859 215.037,308.677 220.060 C 310.495 225.082,312.100 229.461,312.243 229.790 C 312.386 230.120,312.871 231.400,313.321 232.635 C 313.771 233.870,314.323 235.352,314.548 235.928 C 314.772 236.504,315.142 237.515,315.370 238.174 C 316.185 240.533,319.172 248.664,319.440 249.251 C 319.698 249.818,320.659 252.692,320.659 252.898 C 320.659 252.951,312.907 252.994,303.433 252.994 L 286.206 252.994 286.549 252.353 C 286.738 252.001,287.005 251.361,287.144 250.931 C 287.282 250.501,287.722 249.274,288.122 248.204 C 288.522 247.133,290.975 240.464,293.574 233.383 C 296.173 226.302,298.581 219.750,298.925 218.823 C 299.269 217.896,300.420 214.769,301.481 211.875 C 303.480 206.423,303.877 205.914,304.354 208.179 " stroke="none" fill="#fcfcfc" fill-rule="evenodd"></path><path id="path2" d="M378.967 5.860 C 378.514 6.106,378.144 6.370,378.144 6.447 C 378.144 6.736,378.617 6.555,379.341 5.988 C 380.231 5.292,380.098 5.246,378.967 5.860 M356.587 17.665 C 356.010 17.980,355.741 18.241,355.988 18.244 C 356.235 18.248,356.774 17.987,357.186 17.665 C 358.127 16.929,357.931 16.929,356.587 17.665 M311.862 64.090 C 308.376 66.869,308.087 67.176,308.129 68.057 C 308.169 68.924,308.185 68.938,308.296 68.215 C 308.461 67.139,315.200 61.687,316.403 61.656 C 317.146 61.636,316.691 61.195,315.829 61.099 C 315.726 61.087,313.941 62.433,311.862 64.090 M85.030 62.389 C 85.030 62.615,86.461 64.159,88.209 65.819 C 91.086 68.550,91.377 68.922,91.258 69.732 C 91.185 70.224,91.237 70.559,91.372 70.476 C 92.410 69.834,91.572 68.352,88.623 65.613 C 86.976 64.084,85.629 62.640,85.629 62.404 C 85.629 62.169,85.494 61.976,85.329 61.976 C 85.165 61.976,85.030 62.162,85.030 62.389 M105.541 83.834 C 105.840 84.165,106.146 84.373,106.221 84.298 C 106.384 84.135,105.530 83.234,105.215 83.234 C 105.095 83.234,105.242 83.504,105.541 83.834 M119.461 96.782 C 119.461 96.824,119.865 97.240,120.359 97.706 C 121.427 98.714,121.555 98.556,120.549 97.471 C 119.944 96.817,119.461 96.512,119.461 96.782 M166.168 140.511 C 166.744 141.116,167.257 141.612,167.307 141.614 C 167.567 141.623,166.428 140.300,165.821 139.888 C 165.385 139.593,165.517 139.829,166.168 140.511 M217.729 142.106 C 217.353 142.496,217.163 142.814,217.308 142.814 C 217.626 142.814,218.710 141.658,218.536 141.505 C 218.468 141.446,218.105 141.716,217.729 142.106 M178.743 152.199 C 178.743 152.245,179.169 152.679,179.689 153.163 C 180.635 154.041,180.635 154.041,180.064 153.231 C 179.587 152.556,178.743 151.896,178.743 152.199 " stroke="none" fill="#8454fc" fill-rule="evenodd"></path><path id="path3" d="M84.344 62.274 C 84.430 62.603,85.959 64.227,87.741 65.883 C 89.992 67.975,91.019 69.141,91.104 69.702 L 91.228 70.509 91.273 69.639 C 91.311 68.900,90.845 68.320,88.174 65.785 C 86.357 64.061,85.030 62.564,85.030 62.239 C 85.030 61.930,84.840 61.677,84.609 61.677 C 84.335 61.677,84.243 61.886,84.344 62.274 M311.987 64.561 C 310.005 66.148,308.383 67.565,308.383 67.712 C 308.383 67.858,310.034 66.638,312.051 65.001 C 314.390 63.102,316.044 61.977,316.617 61.895 L 317.515 61.766 316.553 61.722 C 315.754 61.684,314.978 62.167,311.987 64.561 " stroke="none" fill="#bca4fc" fill-rule="evenodd"></path><path id="path4" d="M83.353 62.051 C 83.234 62.257,83.250 62.323,83.388 62.198 C 83.525 62.073,83.850 62.291,84.109 62.681 C 84.369 63.071,85.928 64.651,87.575 66.192 C 89.222 67.733,90.660 69.200,90.772 69.452 C 90.948 69.847,90.979 69.842,90.997 69.416 C 91.008 69.144,89.588 67.598,87.841 65.980 C 86.094 64.362,84.548 62.732,84.405 62.358 C 84.119 61.604,83.683 61.477,83.353 62.051 M312.051 64.984 C 309.921 66.725,308.385 68.197,308.388 68.497 C 308.391 68.905,308.469 68.874,308.762 68.347 C 308.965 67.981,310.681 66.453,312.575 64.951 C 316.556 61.793,316.347 61.974,315.993 61.982 C 315.842 61.985,314.068 63.336,312.051 64.984 " stroke="none" fill="#e4dcfc" fill-rule="evenodd"></path></g></svg>